<svg id="Layer_1" data-name="Layer 1" xmlns="http://www.w3.org/2000/svg" width="48" height="48" viewBox="0 0 48 48"><defs><style>.cls-1{fill:#444;}</style></defs><title>Artboard 1</title><circle class="cls-1" cx="19.5" cy="12.49" r="4.5"/><path class="cls-1" d="M33.83,17.42A2.05,2.05,0,0,0,32,16.32a2,2,0,0,0-1.78,1.17L27.1,24.36a.5.5,0,0,1-.84.11l-1.64-2a2,2,0,0,0-3.2.1l-6.24,8.91A1,1,0,0,0,16,33H40a1,1,0,0,0,.89-1.45Z"/><path class="cls-1" d="M43.71,36.71A1,1,0,0,1,43,37H12a1,1,0,0,1-1-1V5a1,1,0,0,1,1-1H43a1,1,0,0,1,1,1V36a1,1,0,0,1-.29.7ZM44,0H11A4,4,0,0,0,7,4V37a4,4,0,0,0,4,4H44a4,4,0,0,0,4-4V4A4,4,0,0,0,44,0Z"/><path class="cls-1" d="M39,44H5a1,1,0,0,1-1-1V9A2,2,0,1,0,0,9V44a4,4,0,0,0,4,4H39a2,2,0,0,0,0-4Z"/></svg>